<svg width="483" height="151" viewBox="0 0 483 151" fill="none" xmlns="http://www.w3.org/2000/svg">
<path fill-rule="evenodd" clip-rule="evenodd" d="M369.831 52.0516C379.073 63.084 377.014 91.5917 366.639 99.4824C360.869 83.1801 362.896 67.7079 369.831 52.0516ZM328.211 117.213C319.711 99.2421 323.462 47.9706 330.414 34.8633C344.093 53.0594 343.063 96.5651 328.211 117.213ZM90.0075 43.8584C101.532 43.8334 109.64 52.1171 109.648 63.9077C109.656 75.5205 101.165 84.2347 89.9676 84.0974C78.7465 83.9695 70.7896 75.6952 70.7178 64.1136C70.6379 52.1015 78.4753 43.8834 90.0075 43.8584ZM284.58 19.65C307.461 50.4073 302.593 109.338 281.555 131.509C282.569 94.25 283.558 57.5397 284.58 19.65ZM153.112 12.2275C180.989 52.6195 173.271 111.669 150.159 136.358C156.168 94.3218 154.676 53.2996 153.112 12.2275ZM233.343 138.451C240.869 96.2001 241.316 54.3698 241.212 11.2541C264.005 43.0753 261.834 110.87 233.343 138.451ZM193.112 139.64C197.046 96.5651 204.181 53.5461 196.041 10.1745C224.724 42.108 220.829 102.74 193.112 139.64ZM449.216 78.1319C462.464 69.9918 472.496 59.4242 479.192 45.9738C488.011 28.2177 481.267 16.8139 461.499 15.073C450.916 14.137 441.044 16.5019 432.193 21.8934C424.061 26.8386 416.575 32.8603 408.857 38.4826C406.798 39.9833 404.955 41.7648 402.967 43.3779C394.971 49.8177 386.631 50.7037 377.142 46.2452C359.863 38.13 342.64 29.6966 324.779 23.0446C287.014 8.98583 247.637 2.25902 207.421 0.415076C146.456 -2.39645 88.1638 9.11994 32.4018 33.5935C23.599 37.4592 15.6023 43.2188 7.37408 48.3388C5.39482 49.5618 3.81464 51.5586 2.38606 53.4431C-2.41042 59.7051 -2.22696 66.1666 3.67887 71.3896C48.8264 111.376 98.8742 141.743 160.247 148.554C219.736 155.144 277.693 148.788 333.055 124.97C348.235 118.452 362.8 110.465 377.62 103.098C382.329 100.758 387.014 98.356 391.571 95.7508C394.34 94.1627 395.585 95.0082 397.213 97.526C401.722 104.465 406.104 111.591 411.451 117.853C422.066 130.28 435.713 135.041 451.834 131.294C463.246 128.651 468.29 120.798 466.399 109.307C464.364 97.0144 457.748 87.1956 449.216 78.1319Z" fill="#FAB751"/>
</svg>
