<svg width="299" height="346" viewBox="0 0 299 346" fill="none" xmlns="http://www.w3.org/2000/svg">
<path d="M91.0602 94.0212C128.798 140.276 89.5366 217.935 37.0734 197.796C14.4463 189.111 1.38172 164.615 0.994719 139.561C0.103417 81.6974 58.6634 54.3006 91.0602 94.0212Z" fill="#FAC663" fill-opacity="0.15"/>
<path d="M136.893 123.097C78.8621 100.821 99.245 -4.21303 160.585 0.77879C188.531 3.0554 210.31 31.6927 207.083 67.521C203.476 107.683 169.517 135.621 136.893 123.097Z" fill="#FAC663" fill-opacity="0.15"/>
<path d="M84.6069 303.918C93.5197 304.788 108.373 308.846 123.424 314.386C139.338 320.229 155.473 327.722 165.056 334.799C190.92 353.965 237.795 349.61 244.68 305.836C251.04 265.367 221.494 256.47 228.305 218.418C235.211 179.97 215.245 152.471 188.869 143.896C164.455 135.963 134.551 144.249 115.427 175.098C95.058 207.973 67.214 194.817 44.8783 229.139C20.6604 266.297 52.7047 300.826 84.6069 303.918Z" fill="#FAC663" fill-opacity="0.15"/>
<path d="M239.025 162.306C222.611 156.005 212.166 141.077 209.923 123.506C203.26 71.2583 264.522 25.9854 303.257 55.5865C352.26 93.0025 297.025 184.57 239.025 162.306Z" fill="#FAC663" fill-opacity="0.15"/>
<path d="M239.808 238.668C238.643 186.008 304.149 147.374 339.617 181.056C382.341 221.626 325.054 303.881 269.186 282.436C251.257 275.553 240.249 258.687 239.808 238.668Z" fill="#FAC663" fill-opacity="0.15"/>
</svg>
