<svg width="63" height="52" viewBox="0 0 63 52" fill="none" xmlns="http://www.w3.org/2000/svg">
<path d="M7.89946 48.4825C7.81886 47.5104 7.23849 46.5545 5.64249 46.4735C6.62589 46.3438 7.98007 44.0756 7.39971 42.3906C6.91607 41.0297 5.46516 41.5644 4.61073 41.8236C4.44952 43.1197 4.82031 45.5014 3.38552 45.8092C3.32103 45.1287 3.45 43.9946 3.27267 42.8119C2.93412 40.8515 0.548183 41.7588 6.10352e-05 42.0018C0.209637 44.1728 0.177395 44.7561 0.177395 47.3646C0.193516 48.2556 0.0967884 49.6652 0.177395 50.4267C0.403092 52.4519 2.80516 51.9172 3.46613 51.2205C3.46613 50.3619 3.45 48.6121 3.40164 47.64C4.46564 47.559 4.6591 47.8668 4.69134 50.135C4.70746 52.4033 7.38358 51.982 8.17352 51.2043C7.89946 50.3619 7.98007 49.2925 7.89946 48.4825Z" fill="#1A212F"/>
<path d="M9.29811 46.8137C9.29811 51.5122 11.7163 51.901 13.409 51.8524C14.9728 51.8524 17.5361 51.415 17.5522 46.8137C17.5361 42.8767 15.795 41.4834 13.4574 41.4834C10.9908 41.4834 9.29811 43.0063 9.29811 46.8137ZM13.4574 44.1242C13.6347 44.1242 14.3118 43.865 14.3118 46.7003C14.3118 48.5473 14.0216 49.6004 13.4413 49.6004C12.9576 49.6004 12.5707 49.1629 12.6191 46.7003C12.6191 44.4645 13.1833 44.1242 13.4574 44.1242Z" fill="#1A212F"/>
<path d="M20.8692 44.4645C20.8692 45.388 20.8531 46.4087 20.9015 49.5518C20.9176 50.8155 20.966 51.8524 22.4169 51.82C23.7066 51.82 24.029 51.3016 24.1741 51.1395C24.2225 49.73 24.1257 46.6517 24.0935 44.5131C24.4482 44.5131 24.7867 44.5131 25.093 44.4969C26.1248 44.4645 26.4794 43.8488 26.4633 42.9901C26.4472 42.018 25.6572 41.4996 24.561 41.4996H21.498C19.0637 41.5158 18.9025 41.5158 18.709 41.4996C18.2576 43.4114 18.5317 44.4321 20.3856 44.4645H20.8692Z" fill="#1A212F"/>
<path d="M33.1037 41.5644C31.9753 41.451 29.2508 41.4996 27.3646 41.5806C27.5742 43.7354 27.5903 46.5059 27.558 48.4663C27.5903 50.3457 27.4291 51.658 29.3959 51.7876C30.6856 51.8848 31.411 51.8848 32.5717 51.7876C34.1516 51.658 34.7965 50.7993 34.0388 48.9199C32.733 49.1143 31.5239 49.1629 30.7662 49.0171C30.7662 48.7903 30.7339 48.0774 30.7662 47.8992C31.4916 47.8992 32.2816 47.8668 32.9748 47.8668C34.4096 47.8668 34.2645 45.55 32.9587 45.55C32.0236 45.5014 31.6045 45.5986 30.7339 45.5176V44.2376C31.7173 44.1566 32.1526 44.2052 32.9748 44.2376C34.5224 44.2862 34.5224 41.8884 33.1037 41.5644Z" fill="#1A212F"/>
<path d="M38.1396 38.0324C37.0756 38.7291 37.1401 39.7822 37.8978 40.414C38.7522 41.0297 40.4288 40.8353 41.5573 40.333C42.5891 39.8632 42.9921 38.7939 41.8959 38C40.2676 38.8587 39.1875 38.4212 38.1396 38.0324ZM43.8788 42.9415C43.8788 41.9694 43.2662 41.4996 42.2989 41.4996C41.1704 41.4996 40.59 41.7912 40.2515 42.8281C39.8485 44.0918 39.252 46.036 38.9134 47.3808C38.9134 46.7975 39.0102 43.3627 39.0102 42.9415C39.0102 41.8722 38.4459 41.4996 37.4948 41.4996C36.8338 41.4996 35.6569 41.9208 35.6569 41.9208C35.7537 42.6499 35.8343 43.0711 35.8504 44.027C35.8826 45.0315 35.8504 46.6355 35.9471 49.811C35.9955 51.3664 36.4953 51.8848 37.7527 51.8362C40.0097 51.7552 40.1548 47.5752 40.7674 46.0522C40.7674 46.7489 40.7351 49.1629 40.7351 49.973C40.7351 51.0747 40.8319 51.8362 42.1054 51.8362C43.2017 51.8362 43.8304 51.4636 44.0239 51.1233C43.8949 50.6373 43.8465 47.6886 43.8465 45.3718C43.8465 44.351 43.8626 43.46 43.8788 42.9415Z" fill="#1A212F"/>
<path d="M53.2184 48.4825C53.1378 47.5104 52.5574 46.5545 50.9614 46.4735C51.9448 46.3438 53.299 44.0756 52.7186 42.3906C52.235 41.0297 50.7841 41.5644 49.9296 41.8236C49.7684 43.1197 50.1392 45.5014 48.7044 45.8092C48.64 45.1287 48.7689 43.9946 48.5916 42.8119C48.253 40.8515 45.8671 41.7588 45.319 42.0018C45.5286 44.1728 45.4963 44.7561 45.4963 47.3646C45.5124 48.2556 45.4157 49.6652 45.4963 50.4267C45.722 52.4519 48.1241 51.9172 48.785 51.2205C48.785 50.3619 48.7689 48.6121 48.7206 47.64C49.7846 47.559 49.978 47.8668 50.0103 50.135C50.0264 52.4033 52.7025 51.982 53.4924 51.2043C53.2184 50.3619 53.299 49.2925 53.2184 48.4825Z" fill="#1A212F"/>
<path d="M63.0001 51.1395C62.7744 50.5077 62.7905 50.1998 62.7421 49.2925C62.6132 46.9271 62.5809 44.6427 61.8071 43.0711C60.5013 40.7543 57.1319 41.3861 55.5037 42.5527C55.3586 45.3555 54.875 46.5059 54.5687 49.6328C54.343 51.9172 56.2453 52.5491 58.0186 51.4312C58.0186 51.1557 58.0186 50.1998 58.0992 49.973C58.3088 49.973 59.0987 49.9892 59.405 49.9892C59.405 49.9892 59.3244 50.9289 59.7758 51.4312C60.5819 52.3547 62.4358 52.0792 63.0001 51.1395ZM58.2121 47.9478C58.3249 47.0729 58.3249 45.2583 58.3733 44.8695C58.4539 44.8047 59.002 44.8371 59.0665 44.9181C59.2599 45.6796 59.2599 47.0729 59.3083 47.9478H58.2121Z" fill="#1A212F"/>
<path d="M39.0001 6.99531L45.576 0.418766C46.4705 -0.475816 48.0001 0.157766 48.0001 1.423V18.9964C47.9999 13.2963 43.4869 9.82971 39.0001 6.99531Z" fill="#FF7236"/>
<path d="M48.0002 18.9966C48.0002 27.834 40.8368 34.998 32.0003 34.998C23.1639 34.998 16.0004 27.8339 16.0004 18.9966C16.0004 10.1593 23.1638 3.99524 32.0003 3.99524C40.8369 3.99524 48.0002 10.1592 48.0002 18.9966Z" fill="#FFAA50"/>
<path d="M25.0002 18.9964C25.0002 11.2947 29.422 5.62687 35.3105 4.29649C34.2419 4.1004 33.1356 3.99505 32.0002 3.99505C29.0558 3.99505 26.3065 4.6923 23.9368 5.93182L18.4243 0.418766C17.5298 -0.475816 16.0002 0.157766 16.0002 1.423V18.9964C16.0002 18.6357 16.0002 18.6377 16.0002 18.9964C16.0002 27.8338 23.1636 34.9978 32.0001 34.9978C33.1356 34.9978 34.2419 34.8756 35.3104 34.6508C29.422 33.1252 25.0002 26.6981 25.0002 18.9964Z" fill="#FF7236"/>
<path d="M28.4999 28.9973C30.4328 28.9973 31.9998 27.6541 31.9998 25.9971C31.9998 24.3401 30.4328 22.9968 28.4999 22.9968C26.5669 22.9968 24.9999 24.3401 24.9999 25.9971C24.9999 27.6541 26.5669 28.9973 28.4999 28.9973Z" fill="#FFFDFB"/>
<path d="M35.5001 28.9973C37.433 28.9973 39 27.6541 39 25.9971C39 24.3401 37.433 22.9968 35.5001 22.9968C33.5671 22.9968 32.0001 24.3401 32.0001 25.9971C32.0001 27.6541 33.5671 28.9973 35.5001 28.9973Z" fill="#FFFDFB"/>
<path d="M32.0001 25.9977C33.1047 25.9977 34.0001 25.1022 34.0001 23.9975C34.0001 22.8928 33.1047 21.9973 32.0001 21.9973C30.8956 21.9973 30.0001 22.8928 30.0001 23.9975C30.0001 25.1022 30.8956 25.9977 32.0001 25.9977Z" fill="#FF913C"/>
<path d="M26.0001 19.9965C25.4474 19.9965 25.0002 19.5487 25.0002 18.9964V17.9964C25.0002 17.4441 25.4475 16.9963 26.0001 16.9963C26.5528 16.9963 27.0001 17.4441 27.0001 17.9964V18.9964C27.0001 19.5487 26.5528 19.9965 26.0001 19.9965Z" fill="#1A212F"/>
<path d="M38 19.9965C37.4473 19.9965 37.0001 19.5487 37.0001 18.9964V17.9964C37.0001 17.4441 37.4474 16.9963 38 16.9963C38.5528 16.9963 39 17.4441 39 17.9964V18.9964C39.0001 19.5487 38.5528 19.9965 38 19.9965Z" fill="#1A212F"/>
</svg>
