<svg width="22" height="22" viewBox="0 0 22 22" fill="none" xmlns="http://www.w3.org/2000/svg">
<path d="M11 22C17.0751 22 22 17.0751 22 11C22 4.92487 17.0751 0 11 0C4.92487 0 0 4.92487 0 11C0 17.0751 4.92487 22 11 22Z" fill="#1A212F"/>
<path fill-rule="evenodd" clip-rule="evenodd" d="M10.5845 15.8244H11.4479C11.4479 15.8244 11.7087 15.7958 11.8418 15.6522C11.9644 15.5205 11.9605 15.273 11.9605 15.273C11.9605 15.273 11.9436 14.1145 12.4813 13.9439C13.0113 13.7759 13.6919 15.0636 14.4133 15.5587C14.9588 15.9334 15.3733 15.8513 15.3733 15.8513L17.3022 15.8244C17.3022 15.8244 18.3113 15.7622 17.8328 14.9689C17.7936 14.904 17.5542 14.382 16.3987 13.3094C15.1892 12.1868 15.3512 12.3684 16.8081 10.4266C17.6954 9.24396 18.0501 8.52198 17.9393 8.21275C17.8336 7.91823 17.1811 7.99608 17.1811 7.99608L15.0092 8.00961C15.0092 8.00961 14.8482 7.98764 14.7288 8.05902C14.6121 8.12902 14.537 8.29217 14.537 8.29217C14.537 8.29217 14.1933 9.2073 13.7349 9.98556C12.7678 11.6278 12.3811 11.7144 12.223 11.6125C11.8554 11.3748 11.9471 10.6577 11.9471 10.1483C11.9471 8.55688 12.1885 7.89333 11.4771 7.72156C11.241 7.6645 11.0673 7.62685 10.4636 7.62077C9.68863 7.61273 9.03272 7.62312 8.66134 7.80509C8.41427 7.92607 8.22368 8.19569 8.33976 8.21118C8.48329 8.2304 8.8084 8.29883 8.98076 8.53355C9.20332 8.8363 9.19548 9.51633 9.19548 9.51633C9.19548 9.51633 9.32332 11.3897 8.89684 11.6225C8.60408 11.7821 8.2025 11.4562 7.34031 9.96634C6.89853 9.20318 6.56499 8.35962 6.56499 8.35962C6.56499 8.35962 6.50067 8.20197 6.38596 8.11765C6.24674 8.01549 6.05223 7.98294 6.05223 7.98294L3.98843 7.99647C3.98843 7.99647 3.67861 8.0051 3.56488 8.13981C3.4637 8.25962 3.55684 8.50747 3.55684 8.50747C3.55684 8.50747 5.17259 12.2876 7.00206 14.1926C8.67957 15.9391 10.5845 15.8244 10.5845 15.8244Z" fill="#FFFDFB"/>
</svg>
